<svg xmlns="http://www.w3.org/2000/svg" viewBox="0 0 48 48"><defs><style>.cls-1{fill:#42a5f5;}.cls-2{fill:#424242;}</style></defs><title>Server Infection</title><g id="Server_Infection" data-name="Server Infection"><circle class="cls-1" cx="6" cy="20" r="2"/><circle class="cls-1" cx="12" cy="20" r="2"/><circle class="cls-1" cx="6" cy="34" r="2"/><circle class="cls-1" cx="12" cy="34" r="2"/><path class="cls-1" d="M22,19v2a1,1,0,0,0,2,0V19A1,1,0,0,0,22,19Z"/><circle class="cls-1" cx="6" cy="6" r="2"/><circle class="cls-1" cx="12" cy="6" r="2"/><path class="cls-1" d="M30,5V7a1,1,0,0,0,2,0V5A1,1,0,0,0,30,5Z"/><path class="cls-1" d="M26,5V7a1,1,0,0,0,2,0V5A1,1,0,0,0,26,5Z"/><path class="cls-1" d="M22,5V7a1,1,0,0,0,2,0V5A1,1,0,0,0,22,5Z"/><path class="cls-1" d="M22,33v2a1,1,0,0,0,2,0V33A1,1,0,0,0,22,33Z"/><path class="cls-2" d="M12,45H1a1,1,0,0,0,0,2H12A1,1,0,0,0,12,45Z"/><path class="cls-2" d="M35,45H24a1,1,0,0,0,0,2H35A1,1,0,0,0,35,45Z"/><path class="cls-2" d="M35.84,16.06A3,3,0,0,0,33,14V12a3,3,0,0,0,3-3V3a3,3,0,0,0-3-3H3A3,3,0,0,0,0,3V9a3,3,0,0,0,3,3v2a3,3,0,0,0-3,3v6a3,3,0,0,0,3,3v2a3,3,0,0,0-3,3v6a3,3,0,0,0,3,3H17v3a1,1,0,0,0,2,0V40H33a3,3,0,0,0,2.84-2.06,11,11,0,1,0,0-21.88ZM2,9V3A1,1,0,0,1,3,2H33a1,1,0,0,1,1,1V9a1,1,0,0,1-1,1H3A1,1,0,0,1,2,9Zm29,3v2H5V12ZM2,23V17a1,1,0,0,1,1-1c32.8,0,30.38-.22,30.83.47A11,11,0,0,0,26.43,24H3A1,1,0,0,1,2,23Zm24.05,5H5V26H26.05A9.55,9.55,0,0,0,26.05,28ZM3,38a1,1,0,0,1-1-1V31a1,1,0,0,1,1-1H26.43a11,11,0,0,0,7.4,7.53C33.38,38.22,35.31,38,3,38Zm34-2a9,9,0,1,1,9-9A9,9,0,0,1,37,36Z"/><path class="cls-2" d="M34.29,22.71a1,1,0,0,1,1.42-1.42L37,22.59l1.29-1.3a1,1,0,0,1,1.42,1.42C36.63,25.78,37.38,25.8,34.29,22.71Z"/><path class="cls-2" d="M41,32H38V30h3A1,1,0,0,1,41,32Z"/><path class="cls-2" d="M33,30h3v2H33A1,1,0,0,1,33,30Z"/><path class="cls-2" d="M41,28H38V26h3A1,1,0,0,1,41,28Z"/><path class="cls-2" d="M33,26h3v2H33A1,1,0,0,1,33,26Z"/><path class="cls-1" d="M38,33.82V25h1a1,1,0,0,1,1,1v5A3,3,0,0,1,38,33.82Z"/><path class="cls-1" d="M34,31V26a1,1,0,0,1,1-1h1v8.82A3,3,0,0,1,34,31Z"/><path class="cls-2" d="M37,22a2,2,0,0,1,2,2v1H35V24A2,2,0,0,1,37,22Z"/><path class="cls-1" d="M23,44H20V43a1,1,0,0,0-1-1H17a1,1,0,0,0-1,1v1H13a1,1,0,0,0-1,1v2a1,1,0,0,0,1,1H23a1,1,0,0,0,1-1V45A1,1,0,0,0,23,44Z"/></g></svg>